# xmcd
#
# Track frame offsets:
# 150
# 13604
# 32558
# 49143
# 60027
# 74816
# 90071
# 110343
# 122203
# 138710
# 152366
#
# Disc length: 2249 seconds
#
#
# Revision: 1
# Processed by: cddbd v1.5.1PL2 Copyright (c) Steve Scherf et al.
# Submitted via: FreeRIP 2.945 
#
DISCID=8608c70b
DTITLE=Jeff Bates - Rainbow Man
DYEAR=2003
DGENRE=Country
TTITLE0=Country Enough
TTITLE1=The Love Song
TTITLE2=Long Slow Kisses
TTITLE3=Lovin Like That
TTITLE4=I Wanna Make You Cry
TTITLE5=Your Lovin Talks To Me
TTITLE6=My Mississippi
TTITLE7=Already Spent
TTITLE8=Rainbow Man
TTITLE9=My Inlaws Are Outlaws
TTITLE10=The Wings Of Mamas Prayers
EXTD=
EXTT0=
EXTT1=
EXTT2=
EXTT3=
EXTT4=
EXTT5=
EXTT6=
EXTT7=
EXTT8=
EXTT9=
EXTT10=
PLAYORDER=
